<svg xmlns="http://www.w3.org/2000/svg" xmlns:xlink="http://www.w3.org/1999/xlink" viewBox="0 0 102.2 65"><defs><style>.cls-1,.cls-2,.cls-3,.cls-4,.cls-5{fill:none;stroke-miterlimit:10;}.cls-1{stroke:url(#linear-gradient);}.cls-2{stroke:url(#linear-gradient-2);}.cls-3{stroke:url(#linear-gradient-3);}.cls-4{stroke:url(#linear-gradient-4);}.cls-5{stroke:url(#linear-gradient-5);}</style><linearGradient id="linear-gradient" y1="32.5" x2="42.45" y2="32.5" gradientUnits="userSpaceOnUse"><stop offset="0" stop-color="#932fe9"/><stop offset="1" stop-color="#c96bb6"/></linearGradient><linearGradient id="linear-gradient-2" x1="59.64" y1="32.5" x2="102.2" y2="32.5" xlink:href="#linear-gradient"/><linearGradient id="linear-gradient-3" x1="41.04" y1="8.72" x2="61.05" y2="8.72" xlink:href="#linear-gradient"/><linearGradient id="linear-gradient-4" x1="41.04" y1="56.28" x2="61.05" y2="56.28" xlink:href="#linear-gradient"/><linearGradient id="linear-gradient-5" x1="37.2" y1="32.5" x2="65" y2="32.5" xlink:href="#linear-gradient"/></defs><g id="Layer_2" data-name="Layer 2"><g id="Layer"><g id="logo-outline"><path class="cls-1" d="M20.67,28.46,41.75,7.38,36.54,2.17a5.72,5.72,0,0,0-8.08,0L2.17,28.46a5.72,5.72,0,0,0,0,8.08L28.46,62.83a5.72,5.72,0,0,0,8.08,0l5.21-5.21L20.67,36.54A5.7,5.7,0,0,1,20.67,28.46Z"/><path class="cls-2" d="M100,28.46,73.74,2.17a5.73,5.73,0,0,0-8.09,0L60.34,7.48l21,21a5.72,5.72,0,0,1,0,8.08l-21,21,5.31,5.31a5.73,5.73,0,0,0,8.09,0L100,36.54A5.72,5.72,0,0,0,100,28.46Z"/><path class="cls-3" d="M60.34,7.48,55,2.17a5.73,5.73,0,0,0-8.09,0l-5.2,5.21,9.35,9.35Z"/><path class="cls-4" d="M41.75,57.62,47,62.83a5.73,5.73,0,0,0,8.09,0l5.3-5.31L51.1,48.27Z"/><path class="cls-5" d="M39.37,36.54,51.1,48.27,62.83,36.54a5.72,5.72,0,0,0,0-8.08L51.1,16.73,39.37,28.46A5.72,5.72,0,0,0,39.37,36.54Z"/></g></g></g></svg>